.
 
http://www.scenetime.com    -  Hottest private tracker on the net. !!!

New release on http://www.scenetime.com

        Seed back for speed


...................................NFO:.................................................[img]http://img841.imageshack.us/img841/3241/footloose.jpg[/img]
[pre]
     _______.     ___      .___  ___.  __    __  .______          ___       __  
    /       |    /   \     |   \/   | |  |  |  | |   _  \        /   \     |  | 
   |   (----`   /  ^  \    |  \  /  | |  |  |  | |  |_)  |      /  ^  \    |  | 
    \   \      /  /_\  \   |  |\/|  | |  |  |  | |      /      /  /_\  \   |  | 
.----)   |    /  _____  \  |  |  |  | |  `--'  | |  |\  \----./  _____  \  |  | 
|_______/    /__/     \__\ |__|  |__|  \______/  | _| `._____/__/     \__\ |__| 
                                                                                

Footloose.1984.BRRiP.AC-3.XViD-SAMURAi

ANOTHER QUALiTY SAMURAi RELEASE!!!

Encoder........: SAMURAi
Video Codec....: XViD
Audio Codec....: AC-3
Audio Bitrate..: 448 kb/s
Subtitles......: N/a
Resolution.....: 720 x 400
Runtime........: 107 min  
Language.......: English
IMDB Link......: http://www.imdb.com/title/tt0087277/
Genre..........: Drama | Music | Romance
Ratings........: 6.0/10 from 18,451 users
Stars..........: Kevin Bacon, Lori Singer and John Lithgow
Plot...........: A city boy comes to a small town where rock music and dancing have been banned. 



Video Source: Footloose.1984.720p.BluRay.x264-Japhson
Audio Source: Footloose.1984.720p.BluRay.x264-Japhson
 
Format                           : AVI
Format/Info                      : Audio Video Interleave
File size                        : 1.37 GiB
Duration                         : 1h 47mn
Overall bit rate                 : 1 832 Kbps
Writing application              : VirtualDubMod 1.5.10.2 (build 2540/release)
Writing library                  : VirtualDubMod build 2540/release

Video
ID                               : 0
Format                           : MPEG-4 Visual
Format profile                   : Advanced Simple@L5
Format settings, BVOP            : 2
Format settings, QPel            : No
Format settings, GMC             : No warppoints
Format settings, Matrix          : Default (H.263)
Muxing mode                      : Packed bitstream
Codec ID                         : XVID
Codec ID/Hint                    : XviD
Duration                         : 1h 47mn
Bit rate                         : 1 375 Kbps
Width                            : 720 pixels
Height                           : 400 pixels
Display aspect ratio             : 16:9
Frame rate                       : 23.976 fps
Color space                      : YUV
Chroma subsampling               : 4:2:0
Bit depth                        : 8 bits
Scan type                        : Progressive
Compression mode                 : Lossy
Bits/(Pixel*Frame)               : 0.199
Stream size                      : 1.03 GiB (75%)
Writing library                  : XviD 64

Audio
ID                               : 1
Format                           : AC-3
Format/Info                      : Audio Coding 3
Mode extension                   : CM (complete main)
Codec ID                         : 2000
Duration                         : 1h 47mn
Bit rate mode                    : Constant
Bit rate                         : 448 Kbps
Channel(s)                       : 6 channels
Channel positions                : Front: L C R, Side: L R, LFE
Sampling rate                    : 48.0 KHz
Bit depth                        : 16 bits
Compression mode                 : Lossy
Stream size                      : 344 MiB (24%)
Alignment                        : Split accross interleaves
Interleave, duration             : 42 ms (1.00 video frame)
Interleave, preload duration     : 500 ms






Release Notes:
few filters added, denoiser, sharpener, and messed with brightness/contrast a bit


Screenshots:
[img]http://img809.imageshack.us/img809/1013/vlcsnap2011092116h54m19.png[/img]
[img]http://img823.imageshack.us/img823/7861/vlcsnap2011092116h54m54.png[/img]
[img]http://img832.imageshack.us/img832/5103/vlcsnap2011092116h55m25.png[/img]
[img]http://img9.imageshack.us/img9/7304/vlcsnap2011092116h55m44.png[/img]
[img]http://img842.imageshack.us/img842/4489/vlcsnap2011092116h56m54.png[/img]
[img]http://img231.imageshack.us/img231/1153/vlcsnap2011092116h57m27.png[/img]



Greetz:
ViSiON, SiC, SANTi, IMAGiNE, MEM, LKRG, DTRG, FLAWL3SS, WBZ, NPW,
CM8, UnKnown, ETRG, SaM, Blackjesus, NOiR, EP1C, EMBER...and other p2p
groups past and present good job!

[/pre]